<?xml version="1.0" standalone="no"?>
<!DOCTYPE svg PUBLIC "-//W3C//DTD SVG 20010904//EN"
 "http://www.w3.org/TR/2001/REC-SVG-20010904/DTD/svg10.dtd">
<svg version="1.0" xmlns="http://www.w3.org/2000/svg"
 width="500.000000pt" height="500.000000pt" viewBox="0 0 500.000000 500.000000"
 preserveAspectRatio="xMidYMid meet">

<g transform="translate(0.000000,500.000000) scale(0.100000,-0.100000)"
fill="#000000" stroke="none">
<path d="M2587 3754 c-4 -4 -7 -23 -7 -42 0 -29 -2 -32 -14 -23 -19 16 -50 -3
-66 -38 -15 -33 14 -75 56 -79 16 -2 32 -9 36 -15 17 -26 27 20 21 103 -5 83
-12 107 -26 94z m-22 -108 c20 -15 15 -46 -8 -46 -21 0 -38 25 -31 44 7 20 15
20 39 2z"/>
<path d="M2360 3683 c1 -25 27 -104 35 -106 5 -1 13 15 18 36 11 45 22 47 36
7 9 -28 31 -42 31 -20 0 18 -27 77 -39 84 -6 4 -19 2 -30 -4 -13 -7 -22 -7
-26 0 -7 12 -25 13 -25 3z"/>
<path d="M2237 3662 c-33 -36 -14 -102 28 -102 13 0 28 8 34 18 9 16 11 16 25
-3 8 -11 18 -17 22 -13 9 10 -15 86 -34 104 -19 20 -56 17 -75 -4z m53 -26 c0
-25 -12 -46 -26 -46 -14 0 -20 41 -7 53 12 12 33 7 33 -7z"/>
<path d="M1953 3656 c3 -7 15 -46 27 -85 11 -39 25 -71 30 -71 6 0 10 23 10
50 0 44 3 50 21 50 13 0 25 -11 35 -35 8 -19 19 -35 24 -35 27 0 -8 85 -39 95
-11 3 -30 3 -43 0 -19 -5 -27 -1 -36 19 -12 26 -39 37 -29 12z"/>
<path d="M2767 3658 c-47 -37 -38 -118 13 -118 33 0 45 14 54 62 6 31 3 39
-16 52 -27 19 -30 19 -51 4z m38 -38 c7 -21 -10 -60 -26 -60 -16 0 -22 30 -11
56 14 29 28 31 37 4z"/>
<path d="M2866 3596 c-6 -51 8 -87 19 -50 15 47 32 69 55 70 41 2 43 3 30 19
-8 9 -27 14 -55 13 l-43 -2 -6 -50z"/>
<path d="M3023 3600 c-25 -10 -43 -39 -43 -69 0 -22 34 -46 50 -36 6 3 10 -1
10 -9 0 -16 -34 -31 -50 -21 -5 3 -10 -1 -10 -9 0 -23 53 -20 74 3 10 11 24
41 32 68 14 46 14 49 -7 66 -24 19 -25 19 -56 7z m37 -32 c0 -14 -30 -48 -42
-48 -12 0 -10 34 4 48 15 15 38 16 38 0z"/>
<path d="M1870 3586 c-22 -27 -8 -59 30 -69 59 -15 64 -33 8 -28 -10 1 -18 -4
-18 -13 0 -21 53 -21 74 0 22 21 5 51 -36 62 -17 4 -34 14 -36 20 -3 9 4 11
22 6 28 -7 34 4 14 24 -16 16 -43 15 -58 -2z"/>
<path d="M3126 3539 c-29 -23 -34 -60 -10 -83 18 -19 20 -19 45 -6 16 9 19 7
19 -15 0 -29 16 -34 24 -7 18 62 18 90 -3 111 -26 26 -41 26 -75 0z m58 -17
c6 -10 -30 -52 -44 -52 -14 0 -12 34 2 48 14 14 35 16 42 4z"/>
<path d="M1750 3505 c-14 -36 -13 -38 11 -69 27 -34 62 -34 89 1 24 31 10 45
-19 19 -18 -17 -51 -22 -51 -8 0 5 16 16 36 25 50 24 43 51 -14 55 -38 3 -43
0 -52 -23z m55 -5 c-3 -5 -14 -10 -23 -10 -15 0 -15 2 -2 10 20 13 33 13 25 0z"/>
<path d="M3266 3500 c-41 -110 -37 -124 17 -72 l30 27 -7 -42 c-7 -46 6 -57
24 -23 17 33 9 84 -15 89 -11 2 -25 11 -32 20 -10 14 -12 14 -17 1z"/>
<path d="M1640 3470 c-16 -16 -30 -33 -30 -37 1 -4 16 -25 34 -46 38 -42 56
-35 31 12 -20 40 -19 62 5 68 23 6 27 33 5 33 -8 0 -28 -13 -45 -30z"/>
<path d="M1513 3450 c-25 -10 -29 -30 -12 -62 8 -14 8 -23 0 -31 -17 -17 -13
-29 7 -23 13 5 28 -5 51 -35 23 -28 37 -37 44 -30 7 7 1 20 -17 41 -27 33 -33
55 -16 65 20 12 10 27 -14 21 -17 -4 -26 -1 -30 10 -8 22 -8 22 14 26 23 3 29
22 8 25 -7 1 -23 -2 -35 -7z"/>
<path d="M3400 3450 c0 -5 5 -10 10 -10 6 0 10 5 10 10 0 6 -4 10 -10 10 -5 0
-10 -4 -10 -10z"/>
<path d="M3355 3388 c-7 -18 -11 -37 -8 -42 8 -13 43 32 43 55 0 30 -20 22
-35 -13z"/>
<path d="M3413 3378 c-33 -36 -37 -64 -13 -88 22 -22 61 -24 68 -2 2 6 -5 12
-15 12 -10 0 -24 4 -32 9 -12 8 -12 13 3 35 21 33 44 33 52 1 3 -14 10 -25 14
-25 14 0 18 24 7 45 -21 41 -53 46 -84 13z"/>
<path d="M2306 3108 c3 -5 10 -6 15 -3 13 9 11 12 -6 12 -8 0 -12 -4 -9 -9z"/>
<path d="M2380 3105 c-1 -11 -4 -14 -7 -7 -2 6 -12 12 -21 12 -12 0 -9 -5 10
-17 14 -9 28 -27 31 -40 2 -12 0 -20 -4 -17 -5 3 -9 12 -9 20 0 8 -5 12 -10 9
-6 -4 -8 -11 -4 -16 3 -5 0 -17 -8 -26 -11 -14 -11 -16 2 -8 8 5 22 10 30 10
17 0 18 16 3 65 -8 23 -12 28 -13 15z"/>
<path d="M2708 3113 c6 -2 9 -10 6 -15 -4 -7 -2 -8 4 -4 18 11 14 26 -5 25
-11 0 -13 -3 -5 -6z"/>
<path d="M2439 3095 c-1 -3 -2 -8 -3 -12 -1 -5 -4 -12 -7 -18 -10 -16 9 -55
26 -55 30 0 55 20 55 45 0 14 -8 29 -19 35 -21 11 -50 14 -52 5z m41 -15 c0
-13 -11 -13 -30 0 -12 8 -11 10 8 10 12 0 22 -4 22 -10z"/>
<path d="M2679 3091 c8 -5 10 -14 6 -22 -6 -11 -5 -11 5 -2 14 12 6 33 -13 33
-8 0 -7 -3 2 -9z"/>
<path d="M2736 3083 c-6 -14 -5 -15 5 -6 7 7 10 15 7 18 -3 3 -9 -2 -12 -12z"/>
<path d="M2296 3078 c3 -4 11 -5 19 -1 21 7 19 12 -4 10 -11 0 -18 -5 -15 -9z"/>
<path d="M2270 3050 c0 -11 7 -20 15 -20 8 0 15 -8 16 -17 0 -11 3 -13 6 -5 2
6 11 12 19 12 8 0 14 4 14 9 0 5 -9 7 -20 4 -11 -3 -20 0 -20 6 0 6 5 11 12
11 6 0 8 3 5 6 -4 4 -14 1 -24 -7 -15 -12 -16 -12 -10 4 3 9 2 17 -3 17 -6 0
-10 -9 -10 -20z"/>
<path d="M2655 3050 c-3 -5 -1 -10 4 -10 6 0 11 5 11 10 0 6 -2 10 -4 10 -3 0
-8 -4 -11 -10z"/>
<path d="M2707 3053 c-13 -13 -7 -33 11 -33 13 0 14 2 3 9 -7 5 -10 14 -7 20
8 12 3 15 -7 4z"/>
<path d="M2750 3050 c0 -5 5 -10 11 -10 5 0 7 5 4 10 -3 6 -8 10 -11 10 -2 0
-4 -4 -4 -10z"/>
<path d="M2799 3039 c-18 -18 -19 -23 -6 -42 18 -28 55 -28 73 -2 12 18 11 24
-2 43 -19 28 -38 28 -65 1z m51 7 c0 -2 -9 -6 -20 -9 -11 -3 -18 -1 -14 4 5 9
34 13 34 5z"/>
<path d="M2011 3030 c-1 -20 -3 -22 -11 -10 -5 8 -10 11 -11 5 0 -5 -2 -20 -3
-33 l-3 -22 19 20 c11 12 18 30 15 43 -4 20 -4 20 -6 -3z"/>
<path d="M2164 3029 c-16 -10 -24 -19 -18 -19 7 0 14 -9 17 -20 7 -27 53 -27
67 0 22 41 -23 68 -66 39z m31 -17 c-3 -3 -11 0 -18 7 -9 10 -8 11 6 5 10 -3
15 -9 12 -12z"/>
<path d="M2040 3030 c-9 -6 -10 -10 -3 -10 6 0 9 -8 6 -19 -3 -13 2 -20 19
-24 21 -5 21 -5 6 7 -22 16 -24 30 -4 23 8 -3 17 1 20 9 4 9 2 12 -5 8 -6 -4
-14 -2 -18 4 -4 7 -12 8 -21 2z"/>
<path d="M2745 3020 c-3 -6 1 -7 9 -4 18 7 21 14 7 14 -6 0 -13 -4 -16 -10z"/>
<path d="M2381 3003 c-1 -8 -11 -11 -31 -6 -17 3 -30 1 -30 -4 0 -9 70 -27 76
-20 1 1 -2 11 -7 22 -4 11 -8 14 -8 8z"/>
<path d="M2090 2984 c0 -8 5 -12 10 -9 6 4 8 11 5 16 -9 14 -15 11 -15 -7z"/>
<path d="M2560 2976 c0 -2 9 -6 20 -9 11 -3 18 -1 14 4 -5 9 -34 13 -34 5z"/>
<path d="M2942 2968 c-14 -14 2 -38 24 -38 8 0 14 -5 14 -11 0 -5 -6 -7 -12
-3 -10 5 -10 4 -1 -6 10 -11 15 -11 28 0 8 7 15 20 15 29 0 35 -43 54 -68 29z
m32 -10 c-3 -4 -9 -8 -15 -8 -5 0 -9 4 -9 8 0 5 7 9 15 9 8 0 12 -4 9 -9z"/>
<path d="M2040 2942 c0 -18 -5 -32 -11 -32 -5 0 -7 -4 -4 -10 10 -16 31 10 30
36 -2 37 -15 41 -15 6z"/>
<path d="M1981 2946 c-9 -11 -9 -15 1 -19 7 -3 4 -6 -8 -6 -22 -1 -64 -43 -64
-64 0 -7 14 -26 32 -43 18 -16 27 -22 20 -13 -11 14 -8 17 17 22 18 4 32 14
36 27 3 11 12 20 18 20 8 0 8 3 2 8 -5 4 -17 16 -25 26 -13 18 -13 19 0 12 9
-4 8 -1 -2 7 -25 20 -22 30 5 22 17 -5 19 -4 7 4 -20 14 -25 14 -39 -3z m-10
-69 c-10 -9 -11 -8 -5 6 3 10 9 15 12 12 3 -3 0 -11 -7 -18z"/>
<path d="M2082 2940 c-9 -15 -9 -21 1 -26 6 -4 9 -4 5 1 -4 4 -3 14 4 22 6 7
9 15 7 18 -3 2 -10 -4 -17 -15z"/>
<path d="M2469 2943 c-1 -10 -1 -21 0 -25 0 -5 -6 -8 -14 -8 -17 0 -20 -25 -5
-35 6 -3 7 1 4 9 -4 11 0 16 10 16 11 0 16 9 16 30 0 32 -9 42 -11 13z"/>
<path d="M2494 2949 c-3 -6 -2 -15 4 -21 6 -6 12 -6 17 3 6 8 4 10 -5 4 -10
-6 -12 -4 -7 8 7 19 2 23 -9 6z"/>
<path d="M3038 2934 c12 -8 22 -23 23 -32 0 -11 2 -13 6 -4 6 14 -24 52 -41
52 -6 0 0 -7 12 -16z"/>
<path d="M2560 2936 c0 -2 8 -10 18 -17 15 -13 16 -12 3 4 -13 16 -21 21 -21
13z"/>
<path d="M2233 2924 c-7 -3 -9 -12 -6 -20 3 -8 0 -14 -6 -14 -6 0 -11 4 -11
10 0 6 -8 6 -22 -1 -31 -14 -38 -89 -9 -89 12 0 20 9 23 25 3 13 1 22 -3 19
-5 -3 -9 -12 -9 -20 0 -8 -5 -14 -11 -14 -6 0 -8 7 -5 16 3 9 6 24 6 35 0 10
5 19 11 19 5 0 8 -4 5 -9 -3 -5 5 -8 18 -7 13 0 24 3 24 6 -1 18 5 18 24 0 19
-18 23 -18 31 -5 10 19 0 55 -17 55 -6 0 -18 -6 -25 -12 -11 -10 -13 -10 -7 0
8 13 7 13 -11 6z"/>
<path d="M2606 2919 c2 -4 -7 -14 -21 -23 -19 -13 -23 -13 -19 -2 3 8 0 17 -7
22 -8 4 -10 3 -5 -4 13 -22 -6 -37 -21 -17 -7 11 -13 14 -13 8 0 -7 4 -14 9
-17 5 -3 11 -15 14 -26 4 -16 -2 -26 -24 -39 l-29 -18 25 -11 c18 -8 25 -8 25
-1 0 8 5 7 15 -1 12 -10 19 -10 27 -2 20 20 -4 35 -37 22 -15 -6 -30 -9 -32
-6 -3 2 5 7 16 11 12 3 21 11 21 17 0 6 9 8 20 5 11 -3 18 -1 14 4 -3 5 -12 9
-20 9 -8 0 -14 5 -14 11 0 7 10 9 24 5 14 -3 28 -2 31 4 3 6 -1 7 -12 4 -17
-5 -17 -5 0 6 22 14 51 -12 44 -40 -3 -11 0 -23 5 -27 6 -3 8 -1 5 4 -4 6 2
22 13 36 23 29 25 50 6 66 -14 12 -68 12 -60 0z m-26 -119 c0 -5 -4 -10 -10
-10 -5 0 -10 5 -10 10 0 6 5 10 10 10 6 0 10 -4 10 -10z"/>
<path d="M2920 2900 c-8 -5 -10 -10 -5 -10 6 0 17 5 25 10 8 5 11 10 5 10 -5
0 -17 -5 -25 -10z"/>
<path d="M2492 2887 c-8 -9 -6 -16 8 -25 12 -7 21 -8 25 -2 4 6 1 9 -7 8 -7
-2 -12 5 -12 15 2 20 0 21 -14 4z"/>
<path d="M2878 2894 c-4 -3 0 -16 8 -28 16 -25 8 -42 -13 -25 -19 16 -17 -6 2
-25 9 -8 23 -12 32 -9 11 4 14 3 9 -5 -4 -7 -1 -12 8 -12 10 0 13 6 10 15 -4
8 -1 15 4 15 6 0 13 -8 15 -17 3 -10 5 -2 6 17 0 23 -2 30 -8 21 -7 -11 -9
-11 -14 0 -4 10 -6 10 -6 -2 -1 -9 -10 -19 -21 -22 -25 -6 -26 8 -2 22 9 6 12
11 5 11 -6 0 -15 12 -20 26 -5 14 -11 22 -15 18z"/>
<path d="M2851 2874 c0 -11 3 -14 6 -6 3 7 2 16 -1 19 -3 4 -6 -2 -5 -13z"/>
<path d="M2950 2880 c0 -6 6 -10 14 -10 8 0 16 -10 18 -22 3 -23 3 -23 9 -2 5
17 1 25 -17 33 -15 6 -24 7 -24 1z"/>
<path d="M2244 2849 c-11 -18 12 -32 33 -20 16 11 16 11 -4 6 -24 -7 -33 9
-10 18 9 4 9 6 0 6 -6 1 -15 -4 -19 -10z"/>
<path d="M2682 2848 c-30 -30 0 -75 42 -64 27 7 38 35 24 60 -11 19 -49 21
-66 4z m18 -18 c-8 -5 -17 -7 -19 -4 -3 3 1 9 9 14 8 5 17 7 19 4 3 -3 -1 -9
-9 -14z"/>
<path d="M2215 2820 c3 -5 8 -10 11 -10 2 0 4 5 4 10 0 6 -5 10 -11 10 -5 0
-7 -4 -4 -10z"/>
<path d="M2275 2809 c-4 -6 -5 -12 -2 -15 2 -3 7 2 10 11 7 17 1 20 -8 4z"/>
<path d="M2243 2795 c4 -21 -13 -45 -33 -45 -5 0 -10 5 -10 10 0 6 7 10 15 10
16 0 20 12 8 23 -3 4 -12 -1 -20 -11 -14 -16 -14 -16 -9 1 4 13 0 17 -17 17
-18 0 -19 -2 -7 -10 13 -9 13 -12 -4 -25 -17 -13 -15 -14 20 -20 22 -3 50 -8
64 -11 19 -4 22 -2 10 6 -10 7 -11 12 -4 18 7 5 6 15 -4 32 -11 20 -13 21 -9
5z"/>
<path d="M2286 2785 c-9 -26 -7 -32 5 -12 6 10 9 21 6 23 -2 3 -7 -2 -11 -11z"/>
<path d="M2640 2780 c0 -5 5 -10 10 -10 6 0 10 5 10 10 0 6 -4 10 -10 10 -5 0
-10 -4 -10 -10z"/>
<path d="M2356 2764 c-32 -32 -13 -74 34 -74 30 0 50 16 50 41 0 23 -27 49
-50 49 -10 0 -26 -7 -34 -16z m31 -1 c-9 -2 -14 -9 -11 -15 4 -7 2 -8 -5 -4
-15 10 -4 26 17 25 15 -1 15 -2 -1 -6z"/>
<path d="M2473 2767 c0 -7 9 -13 19 -13 10 0 18 1 18 3 0 1 -8 7 -18 12 -13 7
-19 6 -19 -2z"/>
<path d="M2556 2762 c-2 -4 -1 -14 5 -22 7 -12 9 -10 9 8 0 23 -5 28 -14 14z"/>
<path d="M2635 2742 c-5 -14 -7 -14 -15 -2 -8 13 -10 12 -10 -2 0 -19 13 -22
41 -10 14 6 15 9 4 19 -10 10 -15 9 -20 -5z"/>
<path d="M1894 2728 c3 -13 6 -30 6 -39 0 -24 166 -103 279 -133 126 -34 283
-50 401 -42 242 18 530 127 530 201 0 33 -13 38 -41 16 -13 -10 -35 -22 -49
-26 -14 -4 -35 -18 -48 -30 -32 -32 -142 -61 -171 -45 -17 8 -35 9 -69 1 -26
-5 -68 -9 -93 -8 -33 1 -61 -6 -102 -27 -45 -22 -66 -27 -95 -23 -20 3 -65 11
-100 16 -35 5 -70 15 -79 23 -8 7 -46 15 -83 19 -43 4 -78 13 -96 26 -16 11
-47 23 -68 27 -24 5 -50 19 -67 37 -33 36 -64 40 -55 7z"/>
<path d="M2526 2735 c-3 -9 -6 -22 -5 -28 0 -7 5 -1 10 12 5 13 8 26 5 28 -2
2 -6 -3 -10 -12z"/>
<path d="M2077 2729 c7 -7 15 -10 18 -7 3 3 -2 9 -12 12 -14 6 -15 5 -6 -5z"/>
<path d="M2890 2674 c-24 -9 -29 -13 -14 -13 11 -1 29 6 40 14 22 17 20 17
-26 -1z"/>
<path d="M3050 2579 c-66 -40 -185 -85 -292 -110 -135 -32 -381 -32 -523 0
-117 27 -234 70 -287 106 l-38 26 0 -73 0 -73 53 -30 c82 -47 158 -73 295
-101 111 -23 142 -25 244 -20 196 10 396 60 523 131 63 35 64 35 70 89 11 83
7 87 -45 55z"/>
<path d="M3454 2395 c-17 -13 -17 -14 -1 -15 13 0 17 -8 17 -35 0 -19 5 -35
10 -35 6 0 10 23 10 50 0 53 -5 58 -36 35z"/>
<path d="M3527 2403 c-4 -3 -7 -17 -7 -30 0 -18 5 -23 26 -23 29 0 24 -17 -10
-30 -20 -9 -20 -9 0 -9 27 -1 44 18 44 49 0 38 -33 64 -53 43z m33 -29 c0 -17
-22 -14 -28 4 -2 7 3 12 12 12 9 0 16 -7 16 -16z"/>
<path d="M3607 2403 c-2 -4 -4 -26 -3 -48 1 -36 4 -40 26 -40 23 0 25 4 25 45
0 38 -3 45 -22 48 -11 2 -23 0 -26 -5z m33 -18 c0 -8 -4 -15 -10 -15 -5 0 -10
7 -10 15 0 8 5 15 10 15 6 0 10 -7 10 -15z m5 -44 c7 -12 -12 -24 -25 -16 -11
7 -4 25 10 25 5 0 11 -4 15 -9z"/>
<path d="M3670 2400 c0 -5 11 -10 24 -10 25 0 25 -1 10 -35 -16 -39 -17 -45
-6 -45 7 0 42 77 42 93 0 4 -16 7 -35 7 -19 0 -35 -4 -35 -10z"/>
<path d="M1398 2389 c-2 -6 -2 -26 0 -45 3 -27 9 -34 26 -34 19 1 19 2 4 11
-22 12 -24 46 -3 51 13 2 12 5 -4 15 -13 8 -21 9 -23 2z"/>
<path d="M3015 2361 c-149 -93 -340 -131 -595 -120 -167 8 -289 40 -442 116
l-68 33 0 -32 c0 -55 19 -103 48 -125 66 -48 187 -96 317 -125 39 -8 126 -13
245 -12 165 1 195 3 281 27 101 26 236 86 263 116 17 19 35 161 20 160 -5 0
-36 -17 -69 -38z"/>
<path d="M1333 2383 c-18 -6 -16 -30 2 -37 8 -3 15 -10 15 -17 0 -6 -7 -9 -15
-5 -8 3 -15 1 -15 -4 0 -6 9 -10 20 -10 28 0 38 30 14 43 -18 10 -18 10 1 17
14 5 15 8 4 12 -8 3 -20 3 -26 1z"/>
<path d="M1244 2366 c-11 -29 1 -51 29 -54 15 -2 27 1 27 6 0 5 -8 9 -17 8
-12 0 -19 7 -21 22 -3 16 1 22 15 21 10 0 13 -3 6 -6 -18 -7 -16 -23 2 -23 8
0 15 9 15 20 0 15 -7 20 -25 20 -14 0 -28 -6 -31 -14z"/>
<path d="M1450 2320 c0 -5 5 -10 10 -10 6 0 10 5 10 10 0 6 -4 10 -10 10 -5 0
-10 -4 -10 -10z"/>
<path d="M3765 1881 c-68 -28 -107 -166 -74 -260 23 -67 114 -78 163 -20 29
34 41 82 40 159 -1 69 -16 98 -59 116 -39 16 -42 16 -70 5z m57 -113 c3 -57
-7 -105 -27 -127 -22 -23 -35 -2 -35 58 0 74 16 121 40 121 16 0 19 -9 22 -52z
m57 -91 c-2 -1 -13 -9 -24 -17 -19 -14 -19 -14 -6 3 7 9 18 17 24 17 6 0 8 -1
6 -3z"/>
<path d="M666 1850 c-92 -81 -85 -256 12 -284 42 -12 86 7 119 51 l26 34 -20
20 -20 21 -23 -32 c-46 -65 -86 -19 -68 79 13 72 64 113 56 46 l-4 -36 40 3
c39 3 41 4 44 40 7 84 -92 119 -162 58z"/>
<path d="M903 1873 l-31 -4 -6 -107 c-4 -59 -9 -126 -12 -149 -5 -43 -3 -45
31 -45 31 0 34 3 41 47 8 60 27 58 59 -5 l26 -51 29 18 c36 21 36 22 10 73
l-20 40 22 31 c16 21 23 45 23 76 0 75 -40 92 -172 76z m97 -80 c0 -23 -29
-53 -52 -53 -19 0 -22 10 -12 48 8 28 64 33 64 5z"/>
<path d="M1143 1873 c-24 -5 -31 -44 -35 -213 l-3 -95 100 4 c105 4 117 9 113
51 -3 24 -5 25 -71 21 -67 -3 -69 -3 -65 20 2 18 10 25 33 27 67 6 75 11 73
42 -2 29 -4 30 -50 30 -40 0 -48 3 -48 18 0 16 12 20 68 28 66 9 67 9 70 42
l3 32 -83 -1 c-46 -1 -93 -4 -105 -6z"/>
<path d="M1446 1858 c-21 -35 -84 -210 -92 -257 l-7 -41 40 0 c33 0 40 4 49
29 8 21 19 30 42 33 28 4 31 1 37 -29 5 -31 9 -33 45 -33 25 0 40 5 40 12 0
37 -44 257 -56 281 -19 36 -76 39 -98 5z m54 -145 c0 -14 -6 -23 -15 -23 -16
0 -18 12 -8 48 4 18 8 20 14 10 5 -7 9 -23 9 -35z m-49 -20 c-12 -20 -14 -14
-5 12 4 9 9 14 11 11 3 -2 0 -13 -6 -23z m121 -88 c5 -24 4 -25 -13 -9 -10 9
-15 22 -12 30 7 19 20 9 25 -21z"/>
<path d="M1635 1787 c-3 -51 -4 -109 0 -129 4 -22 2 -45 -5 -58 -10 -18 -9
-21 1 -15 9 6 11 3 6 -9 -6 -15 -2 -17 26 -14 40 3 46 12 48 63 l1 40 12 -35
c17 -48 41 -50 67 -6 11 20 23 36 25 36 3 0 4 -21 2 -47 l-3 -48 38 -3 c43 -4
39 -22 37 168 -1 130 -7 151 -44 149 -20 0 -21 -1 -1 -9 18 -8 18 -9 -5 -9
-21 -1 -29 -10 -49 -62 -13 -33 -27 -57 -30 -52 -4 4 -13 28 -20 53 -16 57
-37 80 -71 80 -28 0 -28 0 -35 -93z"/>
<path d="M1943 1870 c-13 -5 -23 -13 -23 -17 0 -4 16 -52 35 -106 20 -56 35
-117 35 -142 0 -45 0 -45 34 -45 l35 0 -6 57 c-4 36 -3 54 4 50 5 -4 26 34 47
85 38 93 38 106 -4 109 -10 0 -8 3 5 9 19 8 19 9 -2 9 -16 1 -26 -11 -44 -54
-12 -30 -26 -55 -30 -55 -3 0 -15 23 -26 52 -22 57 -27 61 -60 48z"/>
<path d="M2366 1846 c-44 -44 -59 -93 -54 -169 4 -52 9 -64 36 -88 19 -17 44
-29 60 -29 36 0 83 30 104 67 17 29 17 31 -2 48 -11 10 -21 16 -23 14 -2 -2
-11 -16 -20 -31 -21 -33 -52 -36 -68 -7 -21 40 14 169 47 169 13 0 16 -7 11
-35 l-6 -35 39 0 c34 0 41 4 46 25 8 31 -12 82 -37 95 -10 6 -36 10 -58 10
-33 0 -47 -7 -75 -34z"/>
<path d="M2613 1873 c-19 -3 -34 -11 -37 -21 -2 -9 -7 -76 -11 -148 -6 -119
-5 -132 11 -138 36 -14 54 3 54 50 0 64 29 61 60 -6 13 -27 25 -50 28 -50 2 0
17 9 33 21 l29 20 -24 48 -25 48 21 21 c13 13 22 38 25 69 8 84 -28 103 -164
86z m97 -80 c0 -23 -29 -53 -52 -53 -13 0 -18 7 -18 28 0 36 6 42 42 42 19 0
28 -5 28 -17z"/>
<path d="M2853 1873 c-27 -5 -30 -20 -39 -187 l-6 -129 53 6 c30 4 78 7 107 7
l53 0 -3 38 -3 37 -63 -3 c-62 -4 -64 -3 -60 19 2 13 10 25 18 26 86 11 90 13
88 43 -2 29 -4 30 -55 30 -29 0 -53 3 -53 8 1 21 21 30 78 37 l62 7 0 34 0 34
-77 -1 c-43 -1 -88 -4 -100 -6z"/>
<path d="M3156 1858 c-35 -55 -109 -278 -96 -291 4 -5 23 -7 41 -5 26 2 35 8
37 25 2 15 12 25 30 29 15 3 32 7 39 9 7 2 13 -9 15 -28 3 -30 6 -32 46 -35
l44 -3 -7 43 c-22 133 -48 245 -62 261 -23 25 -69 22 -87 -5z m53 -155 c1 -7
-7 -13 -18 -13 -14 0 -18 7 -17 29 1 16 4 27 9 24 4 -2 7 2 8 9 1 14 16 -28
18 -49z m-48 0 c-12 -20 -14 -14 -5 12 4 9 9 14 11 11 3 -2 0 -13 -6 -23z
m119 -108 c0 -18 -1 -18 -16 3 -8 12 -12 27 -8 33 8 14 24 -8 24 -36z"/>
<path d="M3337 1873 c-4 -3 -7 -24 -7 -45 l0 -38 40 6 39 6 -6 -121 -6 -121
41 0 42 0 0 94 c0 51 3 108 6 125 6 27 10 31 40 31 32 0 34 2 34 35 l0 35
-108 0 c-60 0 -112 -3 -115 -7z m80 -260 c-3 -10 -5 -2 -5 17 0 19 2 27 5 18
2 -10 2 -26 0 -35z"/>
<path d="M3610 1853 c-7 -16 -12 -48 -12 -73 1 -37 -1 -41 -8 -20 -5 17 -8
-12 -9 -87 l-1 -113 39 0 40 0 0 92 c0 51 3 123 7 160 7 67 6 68 -18 68 -17 0
-29 -8 -38 -27z"/>
<path d="M3937 1851 c-4 -16 -9 -89 -13 -161 l-7 -131 39 3 39 3 3 85 3 85 32
-85 c32 -84 33 -85 70 -88 l37 -3 0 84 c0 46 3 118 6 160 l7 77 -37 0 -36 0 0
-47 c0 -67 -13 -82 -29 -35 -23 65 -38 82 -75 82 -29 0 -34 -4 -39 -29z"/>
<path d="M4244 1864 c-35 -17 -54 -50 -54 -93 0 -32 11 -47 63 -85 58 -43 42
-84 -22 -52 -28 15 -31 15 -45 -6 -23 -32 -21 -34 29 -53 85 -33 155 3 155 78
0 39 -6 47 -79 105 -17 13 -22 24 -17 40 10 29 24 28 32 -4 5 -21 11 -25 38
-22 29 3 31 6 29 38 -3 62 -62 87 -129 54z"/>
<path d="M2030 1346 c0 -19 -4 -23 -20 -19 -28 7 -50 -14 -50 -47 0 -35 17
-49 58 -48 l32 1 0 69 c0 39 -4 68 -10 68 -5 0 -10 -11 -10 -24z m-5 -66 c0
-29 -4 -36 -22 -38 -17 -3 -24 3 -29 22 -9 37 2 58 28 54 19 -2 23 -9 23 -38z"/>
<path d="M2611 1353 c0 -13 -7 -23 -13 -23 -10 0 -10 -2 -1 -8 6 -4 13 -25 15
-47 2 -31 8 -41 23 -43 18 -2 18 -2 3 8 -12 7 -18 23 -18 45 0 24 5 35 18 38
15 4 15 5 0 6 -9 0 -19 11 -21 24 l-4 22 -2 -22z"/>
<path d="M2701 1298 l1 -73 11 45 c9 34 17 45 32 45 16 0 21 -9 26 -45 l7 -45
-2 50 -1 50 -33 -2 c-31 -1 -34 1 -29 23 2 13 0 24 -4 24 -5 0 -9 -33 -8 -72z"/>
<path d="M2934 1306 c1 -53 5 -70 16 -73 11 -3 11 -2 3 4 -7 5 -14 38 -16 73
l-4 65 1 -69z"/>
<path d="M1621 1275 c1 -47 2 -48 8 -15 9 45 18 60 37 60 10 0 14 -12 14 -45
0 -25 5 -45 10 -45 6 0 10 18 10 40 0 27 5 43 15 47 22 8 28 -1 36 -50 l6 -42
2 40 c1 59 -6 65 -77 62 l-62 -2 1 -50z"/>
<path d="M1833 1323 c-7 -2 -13 -10 -13 -16 0 -8 4 -7 12 1 17 17 48 15 48 -2
0 -8 -8 -17 -17 -19 -17 -4 -16 -5 0 -6 27 -2 17 -35 -12 -39 -20 -3 -23 0
-18 17 3 12 1 21 -5 21 -5 0 -8 -10 -6 -22 2 -19 10 -23 41 -25 36 -1 37 0 37
36 0 52 -25 72 -67 54z"/>
<path d="M2122 1318 c-17 -17 -15 -63 3 -78 16 -13 65 -6 65 10 0 6 -8 5 -19
-2 -15 -9 -23 -9 -35 1 -26 22 -19 31 24 31 44 0 55 21 21 40 -26 13 -44 13
-59 -2z m56 -15 c2 -9 -7 -13 -27 -13 -23 0 -29 4 -24 16 6 17 44 15 51 -3z"/>
<path d="M2345 1310 c3 -14 8 -37 11 -52 9 -38 19 -35 36 10 l14 37 13 -37 c7
-21 16 -38 20 -38 8 0 34 91 27 97 -2 2 -10 -13 -17 -34 l-12 -38 -12 35 c-14
43 -27 42 -39 -1 l-10 -32 -18 39 c-11 23 -16 29 -13 14z"/>
<path d="M2533 1280 c0 -30 2 -43 4 -27 2 15 2 39 0 55 -2 15 -4 2 -4 -28z"/>
<path d="M3022 1318 c-7 -7 -12 -25 -12 -40 0 -34 41 -59 68 -41 21 12 28 59
11 79 -14 17 -51 18 -67 2z m56 -10 c17 -17 15 -43 -4 -59 -31 -26 -70 25 -44
56 15 18 32 19 48 3z"/>
<path d="M3169 1284 c10 -25 22 -44 27 -43 11 2 45 89 34 89 -4 0 -14 -17 -22
-37 l-14 -38 -13 38 c-7 20 -16 37 -21 37 -4 0 0 -21 9 -46z"/>
<path d="M3301 1316 c-7 -8 -11 -27 -9 -43 4 -34 47 -54 73 -33 21 18 12 24
-13 9 -17 -10 -23 -10 -36 0 -26 22 -19 31 24 31 26 0 40 5 40 13 0 34 -57 50
-79 23z m59 -11 c11 -13 7 -15 -25 -15 -32 0 -36 2 -25 15 7 8 18 15 25 15 7
0 18 -7 25 -15z"/>
</g>
</svg>
