<?xml version="1.0" standalone="no"?>
<!DOCTYPE svg PUBLIC "-//W3C//DTD SVG 20010904//EN"
 "http://www.w3.org/TR/2001/REC-SVG-20010904/DTD/svg10.dtd">
<svg version="1.0" xmlns="http://www.w3.org/2000/svg"
 width="500.000000pt" height="500.000000pt" viewBox="0 0 500.000000 500.000000"
 preserveAspectRatio="xMidYMid meet">

<g transform="translate(0.000000,500.000000) scale(0.100000,-0.100000)"
fill="#000000" stroke="none">
<path d="M851 2794 c-20 -22 -31 -46 -31 -64 0 -26 5 -31 49 -44 75 -22 245
-55 346 -66 267 -30 781 9 898 67 37 18 34 42 -11 93 l-37 42 -36 -34 c-39
-37 -111 -64 -254 -95 -115 -26 -416 -25 -535 1 -107 23 -240 69 -307 107
l-52 28 -30 -35z"/>
<path d="M800 2644 c8 -3 23 -18 32 -34 17 -30 41 -39 53 -20 12 20 46 9 64
-20 10 -17 21 -57 25 -88 11 -96 163 -741 192 -816 6 -17 3 -18 -37 -12 -81
11 7 -13 106 -28 211 -34 397 -29 605 15 89 19 138 39 96 39 -12 0 -16 5 -12
18 32 103 141 663 133 686 -2 6 -12 -34 -21 -89 -10 -55 -42 -214 -72 -354
-30 -139 -54 -257 -54 -261 0 -4 -18 -12 -40 -18 -31 -7 -40 -7 -40 2 0 25 51
290 86 443 19 86 33 158 30 160 -11 11 -126 -518 -126 -580 0 -33 -2 -36 -41
-42 -22 -4 -42 -5 -45 -3 -6 6 77 419 121 602 19 82 34 151 32 153 -8 7 -66
-229 -123 -497 -31 -146 -57 -266 -58 -267 0 -1 -43 -5 -95 -8 -60 -5 -91 -4
-88 2 9 15 109 712 105 732 -3 15 -44 -238 -90 -554 -28 -196 -25 -185 -53
-185 -30 0 -30 -27 -5 325 19 273 24 393 16 384 -2 -2 -14 -137 -25 -299 -31
-431 -27 -410 -61 -410 l-28 0 -7 213 c-14 411 -24 494 -18 162 3 -176 6 -331
7 -345 1 -24 -1 -25 -44 -21 -25 1 -46 4 -47 5 0 0 -8 73 -17 161 -9 88 -27
264 -41 390 -13 127 -26 248 -28 270 -2 23 -4 10 -5 -30 -1 -38 3 -110 8 -160
6 -49 19 -187 30 -305 11 -118 25 -237 30 -263 14 -65 15 -63 -29 -59 l-38 4
-62 251 c-52 213 -141 609 -141 627 0 8 83 40 106 40 12 0 29 -9 40 -21 34
-38 54 -43 75 -20 26 27 40 26 85 -4 44 -30 51 -30 89 -5 38 25 57 25 80 0 23
-25 43 -25 70 0 18 17 25 18 52 8 26 -10 35 -9 57 5 20 13 31 15 45 7 59 -31
68 -31 111 5 23 19 44 35 46 35 3 0 21 -7 41 -15 48 -20 50 -20 83 17 29 31
30 31 71 18 39 -13 43 -13 59 8 11 13 24 20 34 16 9 -3 16 -1 16 5 0 23 -32
24 -49 2 -15 -20 -23 -21 -67 -16 -47 7 -51 5 -68 -20 -18 -28 -31 -29 -108
-10 -21 6 -33 1 -59 -24 -37 -35 -48 -37 -91 -15 -29 15 -34 15 -66 0 -29 -14
-40 -15 -64 -5 -25 10 -32 9 -52 -10 -28 -26 -38 -26 -61 -1 -10 11 -27 20
-37 20 -11 0 -31 -9 -45 -20 -33 -26 -45 -25 -81 5 -36 30 -73 32 -97 5 -18
-20 -18 -19 -57 16 -42 37 -46 38 -111 10 l-38 -17 -31 36 c-32 35 -56 43 -74
25 -15 -15 -39 -3 -52 26 -7 13 -19 23 -29 23 -13 -1 -14 -2 -3 -5z"/>
<path d="M841 2485 c-1 -10 101 -387 181 -670 17 -60 32 -120 32 -132 1 -13 6
-23 12 -23 18 0 5 53 -100 415 -107 369 -124 425 -125 410z"/>
<path d="M1801 2464 c0 -11 3 -14 6 -6 3 7 2 16 -1 19 -3 4 -6 -2 -5 -13z"/>
<path d="M1343 2385 c0 -33 2 -45 4 -27 2 18 2 45 0 60 -2 15 -4 0 -4 -33z"/>
<path d="M1891 2424 c0 -11 3 -14 6 -6 3 7 2 16 -1 19 -3 4 -6 -2 -5 -13z"/>
<path d="M2062 2420 c0 -14 2 -19 5 -12 2 6 2 18 0 25 -3 6 -5 1 -5 -13z"/>
<path d="M1632 2410 c0 -14 2 -19 5 -12 2 6 2 18 0 25 -3 6 -5 1 -5 -13z"/>
<path d="M1746 2213 c-26 -120 -67 -292 -92 -382 -57 -212 -56 -240 1 -46 43
147 151 632 142 641 -2 2 -25 -94 -51 -213z"/>
<path d="M1502 2390 c0 -14 2 -19 5 -12 2 6 2 18 0 25 -3 6 -5 1 -5 -13z"/>
<path d="M1966 2354 c-4 -14 -5 -28 -3 -31 3 -2 8 8 11 23 4 14 5 28 3 31 -3
2 -8 -8 -11 -23z"/>
<path d="M1951 2294 c0 -11 3 -14 6 -6 3 7 2 16 -1 19 -3 4 -6 -2 -5 -13z"/>
</g>
</svg>
